<svg width="16" height="16" viewBox="0 0 16 16" fill="none" xmlns="http://www.w3.org/2000/svg">
<path d="M14.9059 7.85862C14.9059 8.04153 14.8986 8.22802 14.884 8.41093C14.8767 8.51135 14.8657 8.60818 14.8548 8.7086C14.8548 8.72295 14.8293 8.88434 14.8475 8.7624C14.8402 8.81261 14.8329 8.85923 14.8256 8.90944C14.7636 9.27526 14.6761 9.63749 14.5594 9.99254C14.5047 10.1611 14.4427 10.3225 14.377 10.4875C14.3187 10.6345 14.4244 10.3906 14.3552 10.5341C14.3369 10.57 14.3223 10.6058 14.3041 10.6417C14.2603 10.7349 14.2166 10.8282 14.1692 10.9178C14.0014 11.2406 13.8117 11.549 13.5966 11.8431C13.5491 11.9077 13.5017 11.9687 13.4543 12.0332C13.5273 11.94 13.4324 12.0619 13.4215 12.0727C13.3923 12.1085 13.3631 12.1444 13.3303 12.1803C13.2063 12.3237 13.0787 12.4636 12.9474 12.5963C12.8307 12.7146 12.7103 12.8258 12.5863 12.937C12.5207 12.9944 12.455 13.0518 12.3894 13.1055C12.3529 13.1342 12.3164 13.1665 12.2799 13.1952C12.2544 13.2167 12.1632 13.2849 12.2398 13.2275C11.9481 13.4463 11.6381 13.6435 11.3171 13.8192C11.1639 13.9017 11.0035 13.9806 10.843 14.0559C10.7992 14.0775 10.7555 14.0954 10.7117 14.1133C10.5658 14.1779 10.8138 14.0739 10.6643 14.1348C10.5731 14.1707 10.4856 14.2066 10.3907 14.2389C10.037 14.3644 9.67226 14.4648 9.3039 14.5365C9.22367 14.5509 9.13978 14.5652 9.05955 14.5796C9.00849 14.5867 8.96107 14.5939 8.91002 14.6011C9.03766 14.5831 8.8699 14.6047 8.85531 14.6083C8.65472 14.6298 8.45048 14.6441 8.24989 14.6513C7.86694 14.6621 7.48764 14.6477 7.10834 14.6047C7.07917 14.6011 6.96975 14.5867 7.07917 14.6011C7.02811 14.5939 6.98069 14.5867 6.92963 14.5796C6.83846 14.5652 6.75093 14.5473 6.65975 14.5329C6.47374 14.4971 6.29139 14.454 6.10903 14.4038C5.93762 14.3572 5.76621 14.3034 5.59844 14.2424C5.50726 14.2102 5.41608 14.1743 5.3249 14.1384C5.17902 14.0811 5.38691 14.1635 5.29937 14.1277C5.24832 14.1062 5.19726 14.0846 5.1462 14.0595C4.81066 13.9089 4.48972 13.7296 4.17971 13.5323C4.03383 13.4391 3.89159 13.3387 3.74935 13.2347C3.84418 13.3064 3.72018 13.2131 3.70923 13.2024C3.68006 13.1773 3.64723 13.1522 3.61806 13.1271C3.53782 13.0625 3.46123 12.9944 3.38464 12.9262C3.11475 12.6859 2.85946 12.4241 2.62604 12.148C2.60416 12.1229 2.46557 11.9507 2.53486 12.0368C2.47651 11.9615 2.4218 11.8862 2.3671 11.8109C2.26133 11.6638 2.16286 11.5132 2.06803 11.3554C1.97686 11.2083 1.89297 11.0541 1.81274 10.8999C1.77262 10.821 1.7325 10.7457 1.69603 10.6668C1.67415 10.6237 1.65591 10.5807 1.63767 10.5377C1.57203 10.3942 1.67779 10.6381 1.61579 10.4911C1.4772 10.1468 1.36049 9.79887 1.27296 9.44023C1.2292 9.26808 1.19637 9.09235 1.1672 8.91662C1.1599 8.86641 1.15261 8.81978 1.14531 8.76957C1.16355 8.8951 1.14167 8.73012 1.13802 8.71578C1.12708 8.61894 1.11614 8.51852 1.10884 8.4181C1.07967 8.03436 1.07967 7.65061 1.11249 7.26686C1.11978 7.18438 1.12708 7.10189 1.13802 7.0194C1.13802 7.00506 1.16355 6.84367 1.14531 6.96561C1.15261 6.9154 1.1599 6.86877 1.1672 6.81856C1.20002 6.6249 1.24014 6.43482 1.28755 6.24474C1.37508 5.89685 1.48814 5.55256 1.63038 5.21902C1.66685 5.13295 1.57567 5.33379 1.64132 5.19392C1.65956 5.15088 1.68144 5.10784 1.69968 5.06481C1.7325 4.99308 1.76897 4.92135 1.80544 4.84962C1.89297 4.68106 1.98415 4.51609 2.08262 4.3547C2.1738 4.20765 2.26862 4.06061 2.37074 3.92074C2.42545 3.84543 2.4838 3.76652 2.53851 3.6948C2.47286 3.77728 2.53851 3.6948 2.55675 3.67328C2.59322 3.63024 2.62604 3.5872 2.66251 3.54775C2.89593 3.2716 3.15123 3.01338 3.42476 2.77309C3.48311 2.71929 3.54511 2.66908 3.60347 2.61887C3.63994 2.59018 3.67641 2.5579 3.71288 2.52921C3.72382 2.52204 3.84782 2.42521 3.753 2.49693C3.90618 2.38217 4.063 2.27458 4.22348 2.17057C4.53348 1.97332 4.85807 1.79758 5.19361 1.65054C5.22279 1.63619 5.25196 1.62544 5.28114 1.61109C5.42702 1.54653 5.17902 1.65054 5.32855 1.58957C5.41973 1.55371 5.50726 1.51784 5.60209 1.48557C5.77715 1.4246 5.95585 1.36721 6.13821 1.317C6.30598 1.27038 6.47374 1.23093 6.64151 1.19865C6.73998 1.18072 6.83481 1.16279 6.93328 1.14486C6.98434 1.13768 7.03175 1.13051 7.08281 1.12334C6.96246 1.14127 7.12658 1.11975 7.13752 1.11616C7.52411 1.07313 7.918 1.05878 8.30824 1.07313C8.49424 1.0803 8.68025 1.09465 8.8626 1.11616C8.87719 1.11616 9.04131 1.14127 8.91731 1.12334C8.96837 1.13051 9.01578 1.13768 9.06684 1.14486C9.16531 1.1592 9.26379 1.17713 9.35861 1.19865C9.72697 1.27397 10.088 1.37439 10.4418 1.5035C10.5184 1.53219 10.5913 1.56088 10.6679 1.58957C10.8175 1.64695 10.5695 1.54295 10.7153 1.61109C10.7591 1.62902 10.8029 1.65054 10.8466 1.66847C11.0217 1.74737 11.1931 1.83345 11.3609 1.92669C11.6672 2.09526 11.9626 2.28534 12.2398 2.49335C12.145 2.42162 12.269 2.51487 12.2799 2.52563C12.3164 2.55432 12.3529 2.58301 12.3894 2.61529C12.4514 2.6655 12.5097 2.71571 12.5681 2.7695C12.7103 2.89503 12.8489 3.02414 12.9802 3.16042C13.1005 3.28595 13.2173 3.41147 13.3303 3.54417C13.3595 3.58003 13.3923 3.6159 13.4215 3.65176C13.4288 3.66252 13.5273 3.78446 13.4543 3.69121C13.5127 3.76652 13.5674 3.84184 13.6221 3.91715C13.8336 4.21124 14.0233 4.52326 14.1874 4.84604C14.2239 4.91776 14.2567 4.98949 14.2932 5.06122C14.315 5.10426 14.3333 5.14729 14.3515 5.19033C14.4172 5.33379 14.3114 5.08991 14.3734 5.23695C14.4463 5.41628 14.512 5.5956 14.574 5.77492C14.687 6.12997 14.7746 6.4922 14.8329 6.85801C14.8366 6.89029 14.8439 6.92257 14.8475 6.95485C14.8293 6.83291 14.8512 6.9943 14.8548 7.00864C14.8657 7.0983 14.873 7.18796 14.8803 7.28121C14.8986 7.47488 14.9059 7.66496 14.9059 7.85862C14.9059 8.13836 15.1575 8.41093 15.4529 8.39659C15.7483 8.38224 16 8.15988 16 7.85862C15.9927 6.25191 15.4967 4.64878 14.5448 3.33615C13.5929 2.02353 12.2727 1.0265 10.7336 0.467024C7.62623 -0.662697 3.97547 0.309222 1.86744 2.81971C0.802486 4.08213 0.160594 5.6207 0.0256512 7.25611C-0.109292 8.86999 0.29189 10.5233 1.14167 11.9077C1.96227 13.2454 3.19864 14.35 4.64654 14.9956C6.20021 15.6878 7.92529 15.8886 9.59932 15.5622C12.7942 14.9418 15.3873 12.3022 15.8906 9.13897C15.9599 8.71219 16 8.28541 16 7.85504C16 7.5753 15.7483 7.30273 15.4529 7.31707C15.1539 7.33501 14.9059 7.55736 14.9059 7.85862Z" fill="white" fill-opacity="0.4"/>
<path d="M11.0837 10.8929C10.9524 11.022 10.8138 11.1439 10.6679 11.2587C10.5913 11.3197 10.7701 11.1906 10.6315 11.2838C10.5877 11.3125 10.5476 11.3448 10.5038 11.3735C10.4272 11.4273 10.347 11.4775 10.2631 11.5241C10.1099 11.6138 9.9531 11.6998 9.78898 11.7716C9.75981 11.7859 9.72698 11.8003 9.69781 11.811C9.80357 11.7644 9.65039 11.8289 9.63945 11.8325C9.54463 11.8684 9.4498 11.9007 9.35498 11.9329C9.1945 11.9832 9.03403 12.0262 8.86991 12.0585C8.78967 12.0764 8.70579 12.0872 8.62191 12.1015C8.46508 12.1302 8.6912 12.0943 8.59273 12.1051C8.53438 12.1123 8.47602 12.1194 8.41767 12.123C8.07119 12.1517 7.71742 12.1445 7.37095 12.1015C7.4986 12.1159 7.33448 12.0943 7.31989 12.0907C7.28707 12.0836 7.25424 12.08 7.22142 12.0728C7.13753 12.0585 7.0573 12.0405 6.97706 12.019C6.79835 11.976 6.61964 11.9222 6.44823 11.8612C6.40082 11.8433 6.3534 11.8254 6.30599 11.8074C6.15646 11.75 6.3607 11.8325 6.27317 11.7931C6.19658 11.7572 6.11999 11.7249 6.0434 11.6855C5.87563 11.603 5.71151 11.5062 5.55469 11.4057C5.47445 11.3519 5.39786 11.2982 5.32127 11.2444C5.33951 11.2587 5.39057 11.3017 5.30668 11.2336C5.26657 11.2013 5.22645 11.169 5.18633 11.1332C5.0368 11.0077 4.89821 10.8714 4.76326 10.7315C4.70491 10.6669 4.64656 10.6024 4.5882 10.5342C4.56632 10.5091 4.54444 10.4805 4.52255 10.4553C4.5882 10.5378 4.48608 10.4051 4.48244 10.4015C4.37302 10.2509 4.2709 10.0931 4.17608 9.92814C4.13596 9.85641 4.09584 9.7811 4.05572 9.70578C4.03749 9.66992 4.01925 9.63047 4.00102 9.59102C3.99008 9.5695 3.94631 9.46908 3.98643 9.55874C3.91349 9.39018 3.85513 9.21803 3.80407 9.0423C3.75666 8.8845 3.72019 8.72311 3.69101 8.56172C3.68372 8.51151 3.67278 8.46489 3.66548 8.41468C3.68007 8.5151 3.66913 8.43261 3.66548 8.41109C3.65454 8.31426 3.6436 8.21742 3.63995 8.117C3.62901 7.94486 3.62901 7.77271 3.63995 7.60056C3.6436 7.5109 3.65089 7.42124 3.66184 7.33158C3.66548 7.2993 3.66913 7.26702 3.67278 7.23475C3.65819 7.3531 3.68372 7.18095 3.68737 7.15943C3.74937 6.81155 3.84784 6.46725 3.98643 6.14089C3.94996 6.22696 3.98278 6.14806 3.99008 6.13372C4.01196 6.08709 4.03384 6.04406 4.05572 5.99743C4.0922 5.92212 4.13231 5.8468 4.17608 5.77507C4.26726 5.61369 4.36938 5.45588 4.48244 5.30167C4.47514 5.31243 4.57726 5.17614 4.5335 5.23353C4.48973 5.29091 4.5955 5.15821 4.5882 5.16538C4.64291 5.09724 4.70126 5.03269 4.76326 4.96813C4.89456 4.82468 5.0368 4.69198 5.18633 4.56645C5.22645 4.53418 5.26657 4.49831 5.30668 4.46603C5.31763 4.45886 5.38692 4.40507 5.32127 4.45528C5.39057 4.40507 5.45986 4.35486 5.5328 4.30823C5.68963 4.20423 5.85375 4.11098 6.02152 4.02491C6.09811 3.98545 6.1747 3.95318 6.25129 3.91731C6.40082 3.84558 6.15281 3.95318 6.30599 3.89221C6.34611 3.87786 6.38623 3.86352 6.4227 3.84558C6.59411 3.78103 6.77282 3.72723 6.95153 3.6842C7.05 3.65909 7.14847 3.64116 7.24695 3.62323C7.28707 3.61605 7.33083 3.60888 7.37095 3.60171C7.50224 3.58019 7.30165 3.60529 7.42201 3.59454C7.6226 3.57302 7.81954 3.56226 8.02013 3.56226C8.22073 3.56226 8.42132 3.5766 8.61826 3.60171C8.49061 3.58736 8.65473 3.60888 8.66932 3.61247C8.72038 3.61964 8.76779 3.6304 8.81885 3.63757C8.91732 3.6555 9.0158 3.68061 9.11062 3.70571C9.30756 3.75592 9.49721 3.82048 9.68322 3.89221C9.83275 3.94959 9.62851 3.8671 9.71604 3.90655C9.77075 3.93166 9.82545 3.95318 9.87651 3.98187C9.96769 4.0249 10.0589 4.07153 10.1464 4.12174C10.3251 4.22216 10.5002 4.33334 10.6643 4.45886C10.6461 4.44452 10.595 4.40148 10.6789 4.46962C10.7263 4.50907 10.7737 4.54494 10.8211 4.58797C10.9086 4.66329 10.9925 4.74219 11.0764 4.82109C11.2879 5.02551 11.6417 5.0291 11.8496 4.82109C12.0575 4.61666 12.0611 4.2652 11.8496 4.06077C10.6643 2.90594 8.97932 2.32136 7.31989 2.53296C5.61304 2.75173 4.07031 3.74516 3.22783 5.23353C2.42547 6.64657 2.31241 8.39674 2.947 9.89228C3.61078 11.4524 5.00033 12.661 6.68164 13.0591C8.53073 13.5002 10.4965 12.9587 11.8496 11.6424C12.0611 11.438 12.0575 11.0866 11.8496 10.8821C11.6454 10.6849 11.2952 10.6849 11.0837 10.8929Z" fill="white" fill-opacity="0.4"/>
<path d="M9.85096 3.92431C10.1354 3.92431 10.4126 3.67685 10.398 3.38635C10.3834 3.09585 10.1573 2.84839 9.85096 2.84839C9.56649 2.84839 9.28931 3.09585 9.3039 3.38635C9.31484 3.67685 9.54461 3.92431 9.85096 3.92431Z" fill="white" fill-opacity="0.4"/>
<path d="M9.85096 12.8689C10.1354 12.8689 10.4126 12.6214 10.398 12.3309C10.3834 12.0404 10.1573 11.793 9.85096 11.793C9.56649 11.793 9.28931 12.0404 9.3039 12.3309C9.31484 12.6214 9.54461 12.8689 9.85096 12.8689Z" fill="white" fill-opacity="0.4"/>
</svg>