<svg width="19" height="22" viewBox="0 0 19 22" fill="none" xmlns="http://www.w3.org/2000/svg">
<path d="M0 20.2788V20.6719C0 21.0614 0.318682 21.3801 0.708182 21.3801H17.524C17.9135 21.3801 18.2321 21.0614 18.2321 20.6719V20.2788C18.2321 15.2508 14.1424 11.1646 9.11784 11.1646C4.09329 11.1646 0 15.2543 0 20.2788ZM9.1143 12.5809C13.2536 12.5809 16.6423 15.8633 16.8087 19.9637H1.4199C1.58633 15.8633 4.97498 12.5809 9.1143 12.5809Z" fill="black" fill-opacity="0.4"/>
<path d="M9.16745 10.1553C11.9683 10.1553 14.2451 7.87852 14.2451 5.07766C14.2451 2.2768 11.9683 0 9.16745 0C6.36659 0 4.08978 2.2768 4.08978 5.07766C4.08978 7.87852 6.36659 10.1553 9.16745 10.1553ZM9.16745 1.41636C11.1858 1.41636 12.8287 3.05935 12.8287 5.07766C12.8287 7.09598 11.1858 8.73896 9.16745 8.73896C7.14913 8.73896 5.50615 7.09598 5.50615 5.07766C5.50615 3.05935 7.14913 1.41636 9.16745 1.41636Z" fill="black" fill-opacity="0.4"/>
</svg>
