<svg width="19" height="25" viewBox="0 0 19 25" fill="none" xmlns="http://www.w3.org/2000/svg">
<mask id="path-1-inside-1_1621_180" fill="white">
<path d="M18.6761 25H0.323864C0.144983 25 0 24.8577 0 24.6822V11.4407C0 11.2652 0.144983 11.1229 0.323864 11.1229H18.6761C18.855 11.1229 19 11.2652 19 11.4407V24.6822C19 24.8577 18.855 25 18.6761 25ZM0.647727 24.3644H18.3523V11.7585H0.647727V24.3644Z"/>
</mask>
<path d="M18.6761 25H0.323864C0.144983 25 0 24.8577 0 24.6822V11.4407C0 11.2652 0.144983 11.1229 0.323864 11.1229H18.6761C18.855 11.1229 19 11.2652 19 11.4407V24.6822C19 24.8577 18.855 25 18.6761 25ZM0.647727 24.3644H18.3523V11.7585H0.647727V24.3644Z" fill="#828282"/>
<path d="M0.647727 24.3644H-0.352273V25.3644H0.647727V24.3644ZM18.3523 24.3644V25.3644H19.3523V24.3644H18.3523ZM18.3523 11.7585H19.3523V10.7585H18.3523V11.7585ZM0.647727 11.7585V10.7585H-0.352273V11.7585H0.647727ZM18.6761 24H0.323864V26H18.6761V24ZM0.323864 24C0.679464 24 1 24.2878 1 24.6822H-1C-1 25.4276 -0.389499 26 0.323864 26V24ZM1 24.6822V11.4407H-1V24.6822H1ZM1 11.4407C1 11.8352 0.679355 12.1229 0.323864 12.1229V10.1229C-0.389389 10.1229 -1 10.6952 -1 11.4407H1ZM0.323864 12.1229H18.6761V10.1229H0.323864V12.1229ZM18.6761 12.1229C18.3207 12.1229 18 11.8353 18 11.4407H20C20 10.6951 19.3892 10.1229 18.6761 10.1229V12.1229ZM18 11.4407V24.6822H20V11.4407H18ZM18 24.6822C18 24.2877 18.3206 24 18.6761 24V26C19.3893 26 20 25.4277 20 24.6822H18ZM0.647727 25.3644H18.3523V23.3644H0.647727V25.3644ZM19.3523 24.3644V11.7585H17.3523V24.3644H19.3523ZM18.3523 10.7585H0.647727V12.7585H18.3523V10.7585ZM-0.352273 11.7585V24.3644H1.64773V11.7585H-0.352273Z" fill="#828282" mask="url(#path-1-inside-1_1621_180)"/>
<mask id="path-3-inside-2_1621_180" fill="white">
<path d="M15.4375 11.7585H3.56251C3.38368 11.7585 3.23865 11.6162 3.23865 11.4407V6.14407C3.23865 2.75625 6.04752 0 9.50001 0C12.9526 0 15.7614 2.75625 15.7614 6.14407V11.4407C15.7614 11.6162 15.6163 11.7585 15.4375 11.7585ZM3.88637 11.1229H15.1136V6.14407C15.1136 3.10667 12.5954 0.635593 9.50001 0.635593C6.40463 0.635593 3.88637 3.10667 3.88637 6.14407V11.1229Z"/>
</mask>
<path d="M15.4375 11.7585H3.56251C3.38368 11.7585 3.23865 11.6162 3.23865 11.4407V6.14407C3.23865 2.75625 6.04752 0 9.50001 0C12.9526 0 15.7614 2.75625 15.7614 6.14407V11.4407C15.7614 11.6162 15.6163 11.7585 15.4375 11.7585ZM3.88637 11.1229H15.1136V6.14407C15.1136 3.10667 12.5954 0.635593 9.50001 0.635593C6.40463 0.635593 3.88637 3.10667 3.88637 6.14407V11.1229Z" fill="#828282"/>
<path d="M3.88637 11.1229H2.88637V12.1229H3.88637V11.1229ZM15.1136 11.1229V12.1229H16.1136V11.1229H15.1136ZM15.4375 10.7585H3.56251V12.7585H15.4375V10.7585ZM3.56251 10.7585C3.91806 10.7585 4.23865 11.0461 4.23865 11.4407H2.23865C2.23865 12.1862 2.84931 12.7585 3.56251 12.7585V10.7585ZM4.23865 11.4407V6.14407H2.23865V11.4407H4.23865ZM4.23865 6.14407C4.23865 3.32628 6.58189 1 9.50001 1V-1C5.51314 -1 2.23865 2.18622 2.23865 6.14407H4.23865ZM9.50001 1C12.4182 1 14.7614 3.32627 14.7614 6.14407H16.7614C16.7614 2.18623 13.4869 -1 9.50001 -1V1ZM14.7614 6.14407V11.4407H16.7614V6.14407H14.7614ZM14.7614 11.4407C14.7614 11.0461 15.082 10.7585 15.4375 10.7585V12.7585C16.1507 12.7585 16.7614 12.1862 16.7614 11.4407H14.7614ZM3.88637 12.1229H15.1136V10.1229H3.88637V12.1229ZM16.1136 11.1229V6.14407H14.1136V11.1229H16.1136ZM16.1136 6.14407C16.1136 2.53664 13.1298 -0.364407 9.50001 -0.364407V1.63559C12.061 1.63559 14.1136 3.6767 14.1136 6.14407H16.1136ZM9.50001 -0.364407C5.87026 -0.364407 2.88637 2.53664 2.88637 6.14407H4.88637C4.88637 3.6767 6.939 1.63559 9.50001 1.63559V-0.364407ZM2.88637 6.14407V11.1229H4.88637V6.14407H2.88637Z" fill="#828282" mask="url(#path-3-inside-2_1621_180)"/>
<mask id="path-5-inside-3_1621_180" fill="white">
<path d="M9.50004 19.1737C8.13096 19.1737 7.01709 18.0807 7.01709 16.7372C7.01709 15.3938 8.13096 14.3008 9.50004 14.3008C10.8691 14.3008 11.983 15.3938 11.983 16.7372C11.983 18.0807 10.8691 19.1737 9.50004 19.1737ZM9.50004 14.9364C8.48808 14.9364 7.66482 15.7442 7.66482 16.7372C7.66482 17.7302 8.48808 18.5381 9.50004 18.5381C10.512 18.5381 11.3353 17.7302 11.3353 16.7372C11.3353 15.7442 10.512 14.9364 9.50004 14.9364Z"/>
</mask>
<path d="M9.50004 19.1737C8.13096 19.1737 7.01709 18.0807 7.01709 16.7372C7.01709 15.3938 8.13096 14.3008 9.50004 14.3008C10.8691 14.3008 11.983 15.3938 11.983 16.7372C11.983 18.0807 10.8691 19.1737 9.50004 19.1737ZM9.50004 14.9364C8.48808 14.9364 7.66482 15.7442 7.66482 16.7372C7.66482 17.7302 8.48808 18.5381 9.50004 18.5381C10.512 18.5381 11.3353 17.7302 11.3353 16.7372C11.3353 15.7442 10.512 14.9364 9.50004 14.9364Z" fill="#828282"/>
<path d="M9.50004 18.1737C8.66534 18.1737 8.01709 17.5106 8.01709 16.7372H6.01709C6.01709 18.6507 7.59659 20.1737 9.50004 20.1737V18.1737ZM8.01709 16.7372C8.01709 15.9638 8.66534 15.3008 9.50004 15.3008V13.3008C7.59659 13.3008 6.01709 14.8238 6.01709 16.7372H8.01709ZM9.50004 15.3008C10.3348 15.3008 10.983 15.9638 10.983 16.7372H12.983C12.983 14.8238 11.4035 13.3008 9.50004 13.3008V15.3008ZM10.983 16.7372C10.983 17.5106 10.3348 18.1737 9.50004 18.1737V20.1737C11.4035 20.1737 12.983 18.6507 12.983 16.7372H10.983ZM9.50004 13.9364C7.95371 13.9364 6.66482 15.1742 6.66482 16.7372H8.66482C8.66482 16.3142 9.02245 15.9364 9.50004 15.9364V13.9364ZM6.66482 16.7372C6.66482 18.3003 7.95371 19.5381 9.50004 19.5381V17.5381C9.02245 17.5381 8.66482 17.1602 8.66482 16.7372H6.66482ZM9.50004 19.5381C11.0464 19.5381 12.3353 18.3003 12.3353 16.7372H10.3353C10.3353 17.1602 9.97764 17.5381 9.50004 17.5381V19.5381ZM12.3353 16.7372C12.3353 15.1742 11.0464 13.9364 9.50004 13.9364V15.9364C9.97764 15.9364 10.3353 16.3142 10.3353 16.7372H12.3353Z" fill="#828282" mask="url(#path-5-inside-3_1621_180)"/>
<mask id="path-7-inside-4_1621_180" fill="white">
<path d="M9.50001 22.3518C9.32118 22.3518 9.17615 22.2094 9.17615 22.034V18.856C9.17615 18.6805 9.32118 18.5382 9.50001 18.5382C9.67884 18.5382 9.82387 18.6805 9.82387 18.856V22.034C9.82387 22.2094 9.67884 22.3518 9.50001 22.3518Z"/>
</mask>
<path d="M9.50001 22.3518C9.32118 22.3518 9.17615 22.2094 9.17615 22.034V18.856C9.17615 18.6805 9.32118 18.5382 9.50001 18.5382C9.67884 18.5382 9.82387 18.6805 9.82387 18.856V22.034C9.82387 22.2094 9.67884 22.3518 9.50001 22.3518Z" fill="#828282"/>
<path d="M9.50001 21.3518C9.85556 21.3518 10.1761 21.6394 10.1761 22.034H8.17615C8.17615 22.7795 8.78681 23.3518 9.50001 23.3518V21.3518ZM10.1761 22.034V18.856H8.17615V22.034H10.1761ZM10.1761 18.856C10.1761 19.2506 9.85556 19.5382 9.50001 19.5382V17.5382C8.78681 17.5382 8.17615 18.1105 8.17615 18.856H10.1761ZM9.50001 19.5382C9.14447 19.5382 8.82387 19.2506 8.82387 18.856H10.8239C10.8239 18.1105 10.2132 17.5382 9.50001 17.5382V19.5382ZM8.82387 18.856V22.034H10.8239V18.856H8.82387ZM8.82387 22.034C8.82387 21.6394 9.14447 21.3518 9.50001 21.3518V23.3518C10.2132 23.3518 10.8239 22.7795 10.8239 22.034H8.82387Z" fill="#828282" mask="url(#path-7-inside-4_1621_180)"/>
</svg>
